<svg xmlns="http://www.w3.org/2000/svg" width="32" height="32" viewBox="0 0 32 32">
  <!-- Black background -->
  <rect width="32" height="32" rx="4" ry="4" fill="#000000" />
  
  <!-- JF text in serif font with proper styling -->
  <g transform="translate(16, 16)">
    <!-- "J" letter with more serif details -->
    <path d="M-7.5 -5 L-3 -5 L-2 -5 L-2 -6 L-3 -6.5 L-7.5 -6.5 L-8.5 -6 L-8.5 -5 L-7.5 -5 Z" 
          fill="#ffffff" />
    <path d="M-3 -5 L-3 3 Q-3 4.5 -4 5.5 Q-5 6.5 -7 6.5 Q-8 6.5 -9 6" 
          fill="none" stroke="#ffffff" stroke-width="1.5" stroke-linecap="round" stroke-linejoin="round" />
    <path d="M-5 6 L-7 7 L-9 6.5"
          fill="none" stroke="#ffffff" stroke-width="1" stroke-linecap="round" />
    
    <!-- "F" letter with more serif details -->
    <path d="M1 -6.5 L2 -6.5 L2 -5 L8.5 -5 L8.5 -4 L7.5 -3.5 L2 -3.5 L2 -0.5 L6.5 -0.5 L6.5 0.5 L5.5 1 L2 1 L2 6 L1 6 Z" 
          fill="#ffffff" />
    <path d="M0 -5 L1 -5 M0 0 L1 0"
          fill="none" stroke="#ffffff" stroke-width="0.75" stroke-linecap="round" />
  </g>
</svg> 